<?xml version="1.0" encoding="utf-8"?>
<!-- Uploaded to: SVG Repo, www.svgrepo.com, Generator: SVG Repo Mixer Tools -->
<svg fill="#000000" width="800px" height="800px" viewBox="0 0 32 32" version="1.1" xmlns="http://www.w3.org/2000/svg">
<title>eye</title>
<path d="M30.564 15.506c-9.59-10.957-19.543-10.957-29.129 0-0.115 0.131-0.185 0.305-0.185 0.494s0.070 0.363 0.186 0.495l-0.001-0.001c4.793 5.479 9.693 8.256 14.563 8.256h0.001c4.869 0 9.771-2.777 14.564-8.256 0.116-0.131 0.186-0.304 0.186-0.494s-0.070-0.363-0.187-0.495l0.001 0.001zM3.004 16c8.704-9.626 17.291-9.622 25.992 0-8.703 9.621-17.291 9.621-25.992 0zM16 11.25c-2.623 0-4.75 2.127-4.75 4.75s2.127 4.75 4.75 4.75c2.623 0 4.75-2.127 4.75-4.75v0c-0.003-2.622-2.128-4.747-4.75-4.75h-0zM16 19.25c-1.795 0-3.25-1.455-3.25-3.25s1.455-3.25 3.25-3.25c1.795 0 3.25 1.455 3.25 3.25v0c-0.002 1.794-1.456 3.248-3.25 3.25h-0z"></path>
</svg>