<?xml version="1.0" encoding="UTF-8" standalone="no"?> <svg xmlns="http://www.w3.org/2000/svg" viewBox="0 0 64 64"><title>1</title><g id="Layer_52" data-name="Layer 52"><path d="M54,33.92V7.73A5.77,5.77,0,0,0,48.21,2H7.79A5.77,5.77,0,0,0,2,7.73V33.43a5.77,5.77,0,0,0,5.79,5.73H10V52.39a2,2,0,0,0,3.57,1.24l11-14H48.21A5.77,5.77,0,0,0,54,33.92ZM23.58,35.65a2,2,0,0,0-1.57.76L14,46.6V37.16a2,2,0,0,0-2-2H7.79A1.76,1.76,0,0,1,6,33.43V7.73A1.76,1.76,0,0,1,7.79,6H48.21A1.76,1.76,0,0,1,50,7.73v26.2a1.76,1.76,0,0,1-1.79,1.73Z"/><path d="M60,13.34a2,2,0,0,0-2,2V41a1.76,1.76,0,0,1-1.79,1.72H52a2,2,0,0,0-2,2v9.45L42,44a2,2,0,0,0-1.57-.76H28a2,2,0,0,0,0,4H39.45l11,14A2,2,0,0,0,54,60V46.77h2.21A5.77,5.77,0,0,0,62,41V15.34A2,2,0,0,0,60,13.34Z"/></g></svg>