<?xml version="1.0" encoding="utf-8"?>
<!-- Generator: Adobe Illustrator 23.0.3, SVG Export Plug-In . SVG Version: 6.00 Build 0)  -->
<svg version="1.1" id="Layer_1" xmlns="http://www.w3.org/2000/svg" xmlns:xlink="http://www.w3.org/1999/xlink" x="0px" y="0px"
	 viewBox="0 0 512 512" style="enable-background:new 0 0 512 512;" xml:space="preserve">
<style type="text/css">
	.st0{fill:#ECEEF1;}
	.st1{fill:#083344;}
	.st2{fill:#F6A316;}
	.st3{fill:none;stroke:#231F20;stroke-width:15;stroke-linecap:round;stroke-linejoin:round;stroke-miterlimit:10;}
</style>
<path class="st3" d="M408.09,462H103.91C74.14,462,50,437.86,50,408.09V103.91C50,74.14,74.14,50,103.91,50h304.17
	C437.86,50,462,74.14,462,103.91v304.17C462,437.86,437.86,462,408.09,462z"/>
<g>
	<g>
		<path class="st3" d="M317.24,382.17v25.75c0,4.77-3.81,8.58-8.58,8.58H199.22c-4.77,0-8.58-3.81-8.58-8.58v-25.75
			c0-4.77,3.81-8.58,8.58-8.58h109.44C313.43,373.58,317.24,377.4,317.24,382.17z"/>
		<g>
			<path class="st3" d="M336.49,208.59c7.69,4.05,15.2,22.59,15.74,33.56c2.15,43.99-15.56,78.32-30.58,93.88
				c-9.3,9.66-15.74,26.29-19.25,37.55"/>
			<path class="st3" d="M252.03,226.47c-0.3-0.3-0.6-0.54-0.83-0.83c-4.71-4.89-4.41-12.1,0-16.87c0.24-0.36,0.54-0.66,0.83-0.83"/>
			<path class="st3" d="M295.24,272.79c-0.83,0.6-1.67,1.13-2.56,1.73c-6.56,4.29-13.77,8.52-20.56,13.29
				c-13.53,9.54-25.33,21.16-26.11,39.64"/>
			<path class="st3" d="M173.61,184.49c-0.36,0.3-2.4,2.35-2.7,2.76c-7.45,9.3-4.67,49.15-5.2,89.69
				c-0.54,42.38,19.15,41.39,29.88,58.02c7.03,10.97,6.68,28.13,5.6,38.63"/>
			<path class="st3" d="M187.51,287.89L187.51,287.89c-11.63,0-21.06-9.43-21.06-21.06v-65.95c0-11.63,9.43-21.06,21.06-21.06h0
				c11.63,0,21.06,9.43,21.06,21.06v65.95C208.56,278.47,199.14,287.89,187.51,287.89z"/>
			<path class="st3" d="M251.19,208.77c-4.41,4.77-4.71,11.98,0,16.87v41.19c0,11.62-9.42,21.04-21.04,21.04
				c-11.62,0-21.04-9.42-21.04-21.04v-80.17c0-11.62,9.42-21.04,21.04-21.04c5.84,0,11.09,2.32,14.9,6.14
				c3.81,3.81,6.14,9.06,6.14,14.9V208.77z"/>
			<path class="st3" d="M295.24,272.79c7.39-5.07,13.53-10.31,16.75-16.69c7.09-14.13-3.4-20.03-17.64-22.65
				c-0.06,0-0.12-0.06-0.24-0.06c-9.48-1.73-20.56-2.09-29.33-2.5c-5.72-0.3-9.95-1.97-12.76-4.41"/>
			<path class="st3" d="M252.03,207.94c1.91-1.85,4.35-3.16,7.39-3.87c6.02-1.43,19.73-3.99,34.69-4.41h0.24
				c15.08-0.42,31.29,1.43,42.14,8.94"/>
			<path class="st3" d="M294.11,166.57v33.08c-14.96,0.42-28.67,2.98-34.69,4.41c-3.04,0.72-5.48,2.03-7.39,3.87v-41.37
				c0-11.62,9.42-21.1,21.04-21.1c5.84,0,11.09,2.38,14.9,6.2C291.79,155.48,294.11,160.79,294.11,166.57z"/>
			<path class="st3" d="M292.68,274.52c0.89-2.38,1.43-5.01,1.43-7.69v-33.44c-9.48-1.73-20.56-2.09-29.33-2.5
				c-5.72-0.3-9.95-1.97-12.76-4.41v40.35c0,11.33,8.88,20.5,20.09,20.98"/>
			<path class="st3" d="M311.99,256.1c-3.22,6.38-9.36,11.62-16.75,16.69c-0.6-1.91-0.89-3.87-0.89-5.96v-33.38
				C308.59,236.07,319.09,241.97,311.99,256.1z"/>
			<path class="st3" d="M336.49,191.43v17.17c-10.85-7.51-27.06-9.36-42.14-8.94v-8.23c0-11.62,9.48-21.04,21.1-21.04
				c5.78,0,11.09,2.32,14.9,6.14C334.11,180.34,336.49,185.58,336.49,191.43z"/>
		</g>
	</g>
	<line class="st3" x1="253.06" y1="95.5" x2="253.06" y2="120.53"/>
	<line class="st3" x1="399.06" y1="194.19" x2="374.02" y2="194.19"/>
	<line class="st3" x1="137.98" y1="194.19" x2="112.94" y2="194.19"/>
	<line class="st3" x1="339.63" y1="114.37" x2="321.93" y2="132.07"/>
	<line class="st3" x1="169.39" y1="114.37" x2="187.09" y2="132.07"/>
</g>
</svg>
